<svg width="80" height="80" viewBox="0 0 80 80" xmlns="http://www.w3.org/2000/svg" fill="none" stroke="#00A8E8" stroke-width="2.2" stroke-linecap="round" stroke-linejoin="round">
  <!-- Cloud shape -->
  <path d="M22 44 Q14 44 14 36 Q14 28 22 28 Q24 18 36 18 Q48 18 50 28 Q60 26 62 36 Q66 38 66 44 Q66 50 60 50 L24 50 Q22 50 22 44 Z"/>
  <!-- Upload/Download arrows inside -->
  <line x1="32" y1="42" x2="32" y2="28"/>
  <polyline points="28,32 32,28 36,32"/>
  <line x1="48" y1="28" x2="48" y2="42"/>
  <polyline points="44,38 48,42 52,38"/>
  <!-- Sync circle at bottom -->
  <path d="M30 60 Q30 56 34 56 L46 56 Q50 56 50 60 Q50 64 46 64 L34 64 Q30 64 30 60 Z" stroke-dasharray="2,2"/>
  <line x1="40" y1="56" x2="40" y2="64"/>
</svg>
