<svg width="100" height="100" viewBox="0 0 100 100" fill="none" xmlns="http://www.w3.org/2000/svg">
<path d="M0 50C0 22.3858 22.3858 0 50 0C77.6142 0 100 22.3858 100 50C100 77.6142 77.6142 100 50 100C22.3858 100 0 77.6142 0 50Z" fill="#E1EBF8"/>
<g clip-path="url(#clip0_3204_77174)">
<path d="M56.2876 47.6998H68.2629V44.0999H56.2876V47.6998ZM70.0594 48.76C70.0594 49.2784 69.6385 49.7001 69.1212 49.7001H55.4294C54.9121 49.7001 54.4912 49.2784 54.4912 48.76V43.0397C54.4912 42.5213 54.9121 42.0996 55.4294 42.0996H69.1212C69.6385 42.0996 70.0594 42.5213 70.0594 43.0397V48.76Z" fill="#023894"/>
<path d="M63.2731 60.2991H60.6772V57.0996H63.2731V60.2991Z" fill="#023894"/>
<path d="M68.8625 60.2991H66.2666V57.0996H68.8625V60.2991Z" fill="#023894"/>
<path d="M57.4844 60.2991H55.0884V57.0996H57.4844V60.2991Z" fill="#023894"/>
<path d="M57.4844 54.7018H55.0884V51.5H57.4844V54.7018Z" fill="#023894"/>
<path d="M68.8625 54.7018H66.2666V51.5H68.8625V54.7018Z" fill="#023894"/>
<path d="M63.2731 54.7018H60.6772V51.5H63.2731V54.7018Z" fill="#023894"/>
<path d="M63.2731 66.5006H60.6772V63.499H63.2731V66.5006Z" fill="#023894"/>
<path d="M68.8625 66.5006H66.2666V63.499H68.8625V66.5006Z" fill="#023894"/>
<path d="M57.4844 66.5006H55.0884V63.499H57.4844V66.5006Z" fill="#023894"/>
<path d="M36.4868 44.2004C35.2806 44.2004 34.2977 45.1852 34.2977 46.3939C34.2977 47.6025 35.2806 48.5873 36.4868 48.5873C37.6931 48.5873 38.6759 47.6025 38.6759 46.3939C38.6759 45.1852 37.6931 44.2004 36.4868 44.2004ZM36.4868 50.4674C34.246 50.4674 32.4214 48.6391 32.4214 46.3939C32.4214 44.1486 34.246 42.3203 36.4868 42.3203C38.7276 42.3203 40.5523 44.1486 40.5523 46.3939C40.5523 48.6391 38.7276 50.4674 36.4868 50.4674Z" fill="#023894"/>
<path d="M43.7642 55.1442C42.5579 55.1442 41.5751 56.129 41.5751 57.3376C41.5751 58.5462 42.5579 59.5311 43.7642 59.5311C44.9704 59.5311 45.9533 58.5462 45.9533 57.3376C45.9533 56.129 44.9704 55.1442 43.7642 55.1442ZM43.7642 61.4088C41.5234 61.4088 39.6987 59.5805 39.6987 57.3353C39.6987 55.09 41.5234 53.2617 43.7642 53.2617C46.005 53.2617 47.8296 55.09 47.8296 57.3353C47.8296 59.5805 46.005 61.4088 43.7642 61.4088Z" fill="#023894"/>
<path d="M33.3572 61.4087C33.1526 61.4087 32.9481 61.3428 32.7764 61.2061C32.3696 60.8857 32.2991 60.2944 32.6212 59.8868L46.1531 42.6785C46.4729 42.2709 47.0631 42.2002 47.4699 42.523C47.8766 42.8458 47.9472 43.4348 47.625 43.8424L34.0932 61.0506C33.9074 61.2862 33.6346 61.4087 33.3572 61.4087Z" fill="#023894"/>
<path d="M72.1236 66.9197C72.1236 67.4403 71.7028 67.8597 71.1855 67.8597H53.0497C52.53 67.8597 52.1115 67.4403 52.1115 66.9197V40.6007C52.1115 40.0824 52.53 39.6607 53.0497 39.6607H71.1855C71.7028 39.6607 72.1236 40.0824 72.1236 40.6007V66.9197ZM27.9022 37.863L36.193 28.3801V37.0855H29.8068V39.0858H37.0959C37.5897 39.0858 37.9894 38.6829 37.9894 38.1905V28.3801H57.6606C57.7946 28.3801 57.8722 28.4908 57.8722 28.6605V37.7806H53.052C51.4978 37.7806 50.2375 39.0481 50.2375 40.6007V66.9197C50.2375 68.4746 51.4978 69.7398 53.052 69.7398H57.8722V71.3395C57.8722 71.5068 57.797 71.6199 57.663 71.6199H28.1115C27.9775 71.6199 27.9022 71.5092 27.9022 71.3395V37.863ZM26 71.3395C26 72.5293 26.9147 73.5 28.0386 73.5H57.7359C58.8598 73.5 59.7745 72.5293 59.7745 71.3395V69.7398H71.1878C72.7397 69.7398 74.0023 68.477 74.0023 66.9197V40.6007C74.0023 39.0457 72.742 37.7806 71.1878 37.7806H59.7745V28.6605C59.7745 27.4707 58.8598 26.5 57.7359 26.5H36.012C35.7698 26.5 35.5534 26.5919 35.3841 26.7427C35.2901 26.7921 26.442 36.7062 26.442 36.7062C26.047 37.102 26 37.406 26 37.9526V71.3419V71.3395Z" fill="#023894"/>
</g>
<defs>
<clipPath id="clip0_3204_77174">
<rect width="48" height="47" fill="white" transform="translate(26 26.5)"/>
</clipPath>
</defs>
</svg>
