<svg width="100" height="100" viewBox="0 0 100 100" fill="none" xmlns="http://www.w3.org/2000/svg">
<rect width="100" height="100" rx="50" fill="#E1EBF8"/>
<g clip-path="url(#clip0_2784_34184)">
<path d="M58.6316 54.4996C58.7135 55.1678 58.768 55.836 58.768 56.5178C58.768 64.9587 51.9226 71.8042 43.4816 71.8042C35.0407 71.8042 28.1816 64.9724 28.1816 56.5314C28.1816 48.0905 35.0271 41.2314 43.468 41.2314C43.9862 41.2314 44.4907 41.2587 44.9953 41.3133" stroke="#023894" stroke-width="2" stroke-linejoin="round"/>
<path d="M43.4678 68.9268V71.8177" stroke="#023894" stroke-width="2" stroke-linejoin="round"/>
<path d="M43.4678 68.9268V71.8177" stroke="#023894" stroke-width="2" stroke-linejoin="round"/>
<path d="M35.8315 43.2773L37.277 45.7864" stroke="#023894" stroke-width="2" stroke-linejoin="round"/>
<path d="M49.6724 67.2637L51.1178 69.7728" stroke="#023894" stroke-width="2" stroke-linejoin="round"/>
<path d="M30.2271 48.8818L32.7361 50.3273" stroke="#023894" stroke-width="2" stroke-linejoin="round"/>
<path d="M54.2134 62.7227L56.7225 64.1681" stroke="#023894" stroke-width="2" stroke-linejoin="round"/>
<path d="M28.1816 56.5312H31.0725" stroke="#023894" stroke-width="2" stroke-linejoin="round"/>
<path d="M30.2271 64.1681L32.7361 62.7227" stroke="#023894" stroke-width="2" stroke-linejoin="round"/>
<path d="M35.8315 69.7728L37.277 67.2637" stroke="#023894" stroke-width="2" stroke-linejoin="round"/>
<path d="M43.4815 58.3722C44.4982 58.3722 45.3224 57.548 45.3224 56.5313C45.3224 55.5146 44.4982 54.6904 43.4815 54.6904C42.4648 54.6904 41.6406 55.5146 41.6406 56.5313C41.6406 57.548 42.4648 58.3722 43.4815 58.3722Z" stroke="#023894" stroke-width="2" stroke-linejoin="round"/>
<path d="M43.4678 54.977V45.7861" stroke="#023894" stroke-width="2" stroke-linejoin="round"/>
<path d="M44.5591 57.6084L47.8045 60.8539" stroke="#023894" stroke-width="2" stroke-linejoin="round"/>
<path d="M71.8183 43.1407V39.3362L68.6137 39.1316C68.3683 37.9453 67.9046 36.7998 67.2228 35.7498L69.3501 33.3498L66.6501 30.6635L64.2501 32.7771C63.2001 32.0953 62.0546 31.6316 60.8683 31.3862L60.6637 28.1816H56.8592L56.6546 31.3862C55.4683 31.6316 54.3228 32.0953 53.2728 32.7771L50.8728 30.6635L48.1864 33.3498L50.3137 35.7498C49.6319 36.7998 49.1683 37.9453 48.9228 39.1316L45.7183 39.3362V43.1407L48.9228 43.3453C49.1683 44.5316 49.6319 45.6771 50.3137 46.7271L48.2001 49.1271L50.8864 51.8271L53.2864 49.6998C54.3364 50.3816 55.4819 50.8453 56.6683 51.0907L56.8728 54.2953H60.6774L60.8819 51.0907C62.0683 50.8453 63.2137 50.3816 64.2637 49.6998L66.6637 51.8271L69.3501 49.1271L67.2364 46.7271C67.9183 45.6771 68.3819 44.5316 68.6274 43.3453L71.8319 43.1407H71.8183Z" stroke="#023894" stroke-width="2" stroke-linejoin="round"/>
<path d="M62.4228 44.8862C60.4046 46.9044 57.1319 46.9044 55.1001 44.8862C53.0819 42.868 53.0819 39.5953 55.1001 37.5634C57.1182 35.5453 60.391 35.5453 62.4228 37.5634C64.441 39.5816 64.441 42.8544 62.4228 44.8862Z" stroke="#023894" stroke-width="2" stroke-linejoin="round"/>
</g>
<defs>
<clipPath id="clip0_2784_34184">
<rect width="45" height="45" fill="white" transform="translate(27.5 27.5)"/>
</clipPath>
</defs>
</svg>
